<svg width="44" height="44" viewBox="0 0 44 44" fill="none" xmlns="http://www.w3.org/2000/svg">
<path d="M9.49032 0.618347C7.21522 0.618347 5.0333 1.52213 3.42457 3.13087C1.81583 4.7396 0.912048 6.92152 0.912048 9.19662V15.6303H5.20118V9.19662C5.20118 8.05907 5.65307 6.96811 6.45744 6.16374C7.26181 5.35937 8.35277 4.90748 9.49032 4.90748H35.2251C36.3627 4.90748 37.4536 5.35937 38.258 6.16374C39.0624 6.96811 39.5143 8.05907 39.5143 9.19662V34.9314C39.5143 36.069 39.0624 37.1599 38.258 37.9643C37.4536 38.7687 36.3627 39.2206 35.2251 39.2206H9.49032C8.35277 39.2206 7.26181 38.7687 6.45744 37.9643C5.65307 37.1599 5.20118 36.069 5.20118 34.9314V28.4977H0.912048V34.9314C0.912048 37.2065 1.81583 39.3885 3.42457 40.9972C5.0333 42.6059 7.21522 43.5097 9.49032 43.5097H35.2251C37.5002 43.5097 39.6822 42.6059 41.2909 40.9972C42.8996 39.3885 43.8034 37.2065 43.8034 34.9314V9.19662C43.8034 6.92152 42.8996 4.7396 41.2909 3.13087C39.6822 1.52213 37.5002 0.618347 35.2251 0.618347H9.49032Z" fill="#2B2D31"/>
<path d="M3.27347 19.9436C2.71109 19.9436 2.17173 20.167 1.77407 20.5646C1.3764 20.9623 1.153 21.5017 1.153 22.064C1.153 22.6264 1.3764 23.1658 1.77407 23.5634C2.17173 23.9611 2.71109 24.1845 3.27347 24.1845H23.5918L18.2164 29.562C17.8302 29.962 17.6165 30.4976 17.6213 31.0536C17.6261 31.6096 17.8491 32.1414 18.2423 32.5346C18.6354 32.9277 19.1673 33.1507 19.7233 33.1556C20.2792 33.1604 20.8149 32.9467 21.2148 32.5604L30.1123 23.6629C30.3414 23.4642 30.5251 23.2187 30.651 22.9428C30.777 22.667 30.8421 22.3673 30.8421 22.064C30.8421 21.7608 30.777 21.4611 30.651 21.1853C30.5251 20.9094 30.3414 20.6639 30.1123 20.4652L21.2127 11.5677C21.0171 11.3652 20.7831 11.2036 20.5244 11.0925C20.2657 10.9814 19.9874 10.9229 19.7059 10.9204C19.4243 10.918 19.1451 10.9716 18.8845 11.0783C18.6239 11.1849 18.3871 11.3423 18.188 11.5414C17.9889 11.7405 17.8315 11.9773 17.7249 12.2379C17.6183 12.4985 17.5646 12.7777 17.5671 13.0592C17.5695 13.3408 17.628 13.6191 17.7391 13.8778C17.8503 14.1365 18.0118 14.3704 18.2143 14.5661L23.5918 19.9436H3.27347Z" fill="#2B2D31"/>
</svg>
