<svg width="45" height="48" viewBox="0 0 45 48" fill="none" xmlns="http://www.w3.org/2000/svg">
<path d="M1.56127 33.8224L3.48774 37.161C4.25608 38.4873 5.51877 39.4551 6.99923 39.8523C8.4797 40.2495 10.0572 40.0437 11.3863 39.2801L12.9602 38.3708C13.5635 38.7716 14.1915 39.1339 14.8405 39.4554V41.2702C14.8405 42.803 15.4494 44.273 16.5332 45.3568C17.6171 46.4407 19.0871 47.0496 20.6199 47.0496H24.4729C26.0057 47.0496 27.4757 46.4407 28.5595 45.3568C29.6434 44.273 30.2523 42.803 30.2523 41.2702V39.4554C30.9021 39.1321 31.5307 38.7679 32.1344 38.365L33.7084 39.2743C34.366 39.6542 35.0921 39.9008 35.8451 39.9999C36.5982 40.099 37.3633 40.0487 38.0969 39.8519C38.8305 39.6551 39.518 39.3156 40.1203 38.8529C40.7226 38.3902 41.2278 37.8133 41.6069 37.1552L43.5334 33.8166C43.9133 33.159 44.1599 32.4329 44.259 31.6798C44.3581 30.9268 44.3078 30.1617 44.111 29.4281C43.9142 28.6945 43.5747 28.007 43.112 27.4047C42.6493 26.8024 42.0724 26.2972 41.4143 25.9181L39.8442 25.0107C39.8982 24.2861 39.8982 23.5584 39.8442 22.8338L41.4143 21.9264C42.0724 21.5472 42.6493 21.0421 43.112 20.4398C43.5747 19.8375 43.9142 19.1499 44.111 18.4164C44.3078 17.6828 44.3581 16.9176 44.259 16.1646C44.1599 15.4116 43.9133 14.6855 43.5334 14.0279L41.6069 10.6893C40.8386 9.36292 39.5759 8.39516 38.0954 7.99796C36.615 7.60076 35.0374 7.80651 33.7084 8.57014L32.1344 9.47944C31.5302 9.08315 30.9016 8.7254 30.2523 8.40832V6.59358C30.2523 5.06078 29.6434 3.59076 28.5595 2.5069C27.4757 1.42305 26.0057 0.814148 24.4729 0.814148L20.6199 0.814148C19.0871 0.814148 17.6171 1.42305 16.5332 2.5069C15.4494 3.59076 14.8405 5.06078 14.8405 6.59358V8.40832C14.1907 8.73163 13.562 9.09582 12.9583 9.4987L11.3844 8.58941C10.0553 7.82578 8.47777 7.62003 6.99731 8.01722C5.51685 8.41442 4.25415 9.38219 3.48582 10.7085L1.55934 14.0471C1.17943 14.7048 0.932878 15.4309 0.833775 16.1839C0.734671 16.9369 0.784962 17.7021 0.981772 18.4356C1.17858 19.1692 1.51805 19.8568 1.98077 20.459C2.44349 21.0613 3.02038 21.5665 3.67846 21.9457L5.24854 22.853C5.1946 23.5777 5.1946 24.3053 5.24854 25.03L3.67846 25.9373C2.35337 26.7034 1.38627 27.9638 0.98935 29.4421C0.592432 30.9203 0.798113 32.4956 1.56127 33.8224ZM5.60687 29.2644L8.26348 27.7232C8.59409 27.5318 8.86036 27.2465 9.02844 26.9035C9.19652 26.5605 9.25883 26.1752 9.20745 25.7967C9.03986 24.5578 9.03986 23.302 9.20745 22.0632C9.25883 21.6847 9.19652 21.2994 9.02844 20.9564C8.86036 20.6134 8.59409 20.3281 8.26348 20.1367L5.60687 18.5955C5.16512 18.3404 4.84261 17.9205 4.71007 17.4278C4.57752 16.9352 4.64578 16.4102 4.89985 15.9678L6.82633 12.6312C7.0818 12.1887 7.50257 11.8658 7.99609 11.7336C8.4896 11.6014 9.01542 11.6706 9.45789 11.9261L12.1126 13.4672C12.446 13.658 12.8289 13.7447 13.212 13.7162C13.5951 13.6877 13.961 13.5453 14.2625 13.3073C15.2461 12.537 16.3321 11.9074 17.4894 11.4367C17.8451 11.2928 18.1498 11.046 18.3643 10.7278C18.5788 10.4096 18.6934 10.0346 18.6934 9.6509V6.59358C18.6934 6.08264 18.8964 5.59264 19.2577 5.23135C19.619 4.87007 20.109 4.6671 20.6199 4.6671H24.4729C24.9838 4.6671 25.4738 4.87007 25.8351 5.23135C26.1964 5.59264 26.3993 6.08264 26.3993 6.59358V9.6509C26.3993 10.0346 26.514 10.4096 26.7285 10.7278C26.943 11.046 27.2476 11.2928 27.6034 11.4367C28.7606 11.9074 29.8467 12.537 30.8302 13.3073C31.1328 13.5438 31.4991 13.6845 31.8822 13.7113C32.2653 13.738 32.6476 13.6497 32.9802 13.4576L35.6349 11.9261C36.0773 11.6706 36.6032 11.6014 37.0967 11.7336C37.5902 11.8658 38.011 12.1887 38.2664 12.6312L40.1929 15.9678C40.4484 16.4103 40.5176 16.9361 40.3854 17.4296C40.2531 17.9231 39.9303 18.3439 39.4878 18.5994L36.8312 20.1406C36.5006 20.3319 36.2343 20.6172 36.0662 20.9602C35.8982 21.3033 35.8358 21.6885 35.8872 22.067C35.9777 22.6846 36.026 23.3077 36.0317 23.9319C36.0261 24.5567 35.9778 25.1804 35.8872 25.7986C35.8358 26.1771 35.8982 26.5624 36.0662 26.9054C36.2343 27.2484 36.5006 27.5338 36.8312 27.7251L39.4878 29.2663C39.9303 29.5218 40.2531 29.9425 40.3854 30.436C40.5176 30.9296 40.4484 31.4554 40.1929 31.8978L38.2664 35.2345C38.011 35.677 37.5902 35.9998 37.0967 36.132C36.6032 36.2643 36.0773 36.195 35.6349 35.9396L32.9802 34.408C32.6476 34.216 32.2653 34.1276 31.8822 34.1544C31.4991 34.1812 31.1328 34.3218 30.8302 34.5583C29.8467 35.3286 28.7606 35.9582 27.6034 36.4289C27.2476 36.5728 26.943 36.8197 26.7285 37.1379C26.514 37.456 26.3993 37.831 26.3993 38.2148V41.2702C26.3993 41.7811 26.1964 42.2711 25.8351 42.6324C25.4738 42.9937 24.9838 43.1966 24.4729 43.1966H20.6199C20.109 43.1966 19.619 42.9937 19.2577 42.6324C18.8964 42.2711 18.6934 41.7811 18.6934 41.2702V38.2128C18.6934 37.8291 18.5788 37.4541 18.3643 37.1359C18.1498 36.8178 17.8451 36.5709 17.4894 36.427C16.3321 35.9563 15.2461 35.3267 14.2625 34.5564C13.9556 34.3293 13.5903 34.1945 13.2095 34.1679C12.8286 34.1413 12.4481 34.2239 12.1126 34.4061L9.45789 35.9377C9.01542 36.1931 8.4896 36.2624 7.99609 36.1301C7.50257 35.9979 7.0818 35.675 6.82633 35.2326L4.89985 31.8959C4.64439 31.4535 4.57517 30.9276 4.7074 30.4341C4.83963 29.9406 5.16441 29.5198 5.60687 29.2644Z" fill="#2B2D31"/>
<path d="M22.5464 33.5642C24.4222 33.5642 26.2558 32.9993 27.8155 31.9409C29.3752 30.8825 30.5908 29.3781 31.3086 27.618C32.0264 25.8579 32.2143 23.9212 31.8483 22.0527C31.4824 20.1842 30.5791 18.4678 29.2527 17.1207C27.9263 15.7736 26.2364 14.8562 24.3966 14.4846C22.5569 14.1129 20.6499 14.3036 18.9169 15.0327C17.1839 15.7617 15.7027 16.9964 14.6606 18.5804C13.6184 20.1644 13.0622 22.0268 13.0622 23.9319C13.0652 26.4856 14.0654 28.9338 15.8434 30.7396C17.6214 32.5454 20.0319 33.5612 22.5464 33.5642ZM22.5464 18.1524C23.6719 18.1524 24.7721 18.4914 25.7079 19.1264C26.6437 19.7615 27.373 20.6641 27.8037 21.7202C28.2344 22.7762 28.3471 23.9383 28.1275 25.0594C27.908 26.1805 27.366 27.2103 26.5702 28.0185C25.7743 28.8268 24.7604 29.3772 23.6565 29.6002C22.5527 29.8232 21.4085 29.7088 20.3687 29.2714C19.3289 28.8339 18.4402 28.0932 17.8149 27.1427C17.1896 26.1923 16.8559 25.0749 16.8559 23.9319C16.8559 22.3991 17.4554 20.929 18.5226 19.8452C19.5898 18.7613 21.0372 18.1524 22.5464 18.1524Z" fill="#2B2D31"/>
</svg>
