<svg xmlns="http://www.w3.org/2000/svg" width="37" height="37" viewBox="0 0 37 37" fill="none">
<circle cx="18.5" cy="18.5" r="17.5" fill="white" stroke="#D9D9D9" stroke-width="2"/>
<path d="M27.4916 17.4521L20.4279 10.3509C20.3044 10.2268 20.1471 10.1423 19.9758 10.108C19.8046 10.0738 19.6271 10.0914 19.4657 10.1585C19.3044 10.2257 19.1665 10.3395 19.0695 10.4854C18.9725 10.6313 18.9207 10.8029 18.9206 10.9785V14.1252C16.5086 14.3496 14.2667 15.4707 12.6337 17.2692C11.0006 19.0678 10.0939 21.4142 10.091 23.8493V25.1808C10.0911 25.3651 10.1483 25.5447 10.2546 25.6948C10.3609 25.845 10.511 25.9581 10.6841 26.0186C10.8572 26.0791 11.0448 26.0839 11.2208 26.0324C11.3968 25.9809 11.5524 25.8756 11.6662 25.7311C12.5312 24.697 13.5926 23.8465 14.7883 23.2294C15.984 22.6123 17.2901 22.241 18.6301 22.1371C18.6743 22.1317 18.7847 22.1229 18.9206 22.114V25.1808C18.9207 25.3563 18.9725 25.5279 19.0695 25.6739C19.1665 25.8198 19.3044 25.9335 19.4657 26.0007C19.6271 26.0679 19.8046 26.0855 19.9758 26.0512C20.1471 26.017 20.3044 25.9325 20.4279 25.8084L27.4916 18.7072C27.6571 18.5407 27.7501 18.315 27.7501 18.0796C27.7501 17.8443 27.6571 17.6185 27.4916 17.4521ZM20.6866 23.038V21.1864C20.6866 20.951 20.5935 20.7252 20.428 20.5587C20.2624 20.3923 20.0378 20.2987 19.8036 20.2987C19.5785 20.2987 18.6593 20.3431 18.4244 20.3742C16.0447 20.5946 13.7795 21.5035 11.9028 22.991C12.1159 21.0332 13.0397 19.2232 14.4975 17.9076C15.9553 16.5919 17.8446 15.863 19.8036 15.8605C20.0378 15.8605 20.2624 15.767 20.428 15.6005C20.5935 15.4341 20.6866 15.2083 20.6866 14.9729V13.1212L25.6188 18.0796L20.6866 23.038Z" fill="#2B2D31"/>
</svg>
