<svg width="50" height="231" viewBox="0 0 50 231" fill="none" xmlns="http://www.w3.org/2000/svg">
<rect width="50" height="231" transform="matrix(-1 0 0 1 50 0)" fill="rgb(243,240,240)" fill-opacity="0.1"/>
<path d="M31.1875 116.8L21.925 125.9C21.275 126.55 20.3 126.55 19.65 125.9C19 125.25 19 124.275 19.65 123.625L27.6125 115.5L19.65 107.375C19 106.725 19 105.75 19.65 105.1C19.975 104.775 20.3 104.613 20.7875 104.613C21.275 104.613 21.6 104.775 21.925 105.1L31.1875 114.2C31.8375 115.013 31.8375 115.988 31.1875 116.8C31.1875 116.638 31.1875 116.638 31.1875 116.8Z" fill="white"/>
</svg>
