<?xml version="1.0" standalone="no"?>
<!DOCTYPE svg PUBLIC "-//W3C//DTD SVG 20010904//EN"
 "http://www.w3.org/TR/2001/REC-SVG-20010904/DTD/svg10.dtd">
<svg version="1.0" xmlns="http://www.w3.org/2000/svg"
 width="256.000000pt" height="256.000000pt" viewBox="0 0 256.000000 256.000000"
 preserveAspectRatio="xMidYMid meet">
<metadata>
Created by potrace 1.14, written by Peter Selinger 2001-2017
</metadata>
<g transform="translate(0.000000,256.000000) scale(0.100000,-0.100000)"
fill="#000000" stroke="none">
<path d="M1129 2202 c-17 -5 -216 -81 -244 -93 -11 -5 -72 -28 -135 -53 -601
-231 -552 -210 -592 -253 -35 -37 -37 -43 -102 -306 -80 -323 -82 -317 159
-480 88 -59 170 -117 182 -130 12 -12 51 -75 87 -139 37 -64 79 -128 96 -141
16 -14 66 -36 112 -50 305 -94 438 -131 473 -132 75 -4 320 95 432 174 74 52
107 100 100 144 -3 21 -61 107 -171 253 -152 203 -168 221 -194 218 -39 -4
-151 -15 -192 -18 -19 -2 -78 -7 -130 -11 -52 -4 -98 -9 -101 -11 -4 -2 -33
-4 -66 -5 -54 -1 -65 2 -128 43 -147 94 -194 118 -202 104 -27 -45 -130 -59
-197 -26 -89 44 -120 165 -63 248 102 147 332 64 314 -113 l-5 -52 120 -74
c127 -78 125 -78 243 -65 39 4 93 9 120 11 91 6 190 16 210 20 11 2 30 4 42 4
19 1 3 26 -109 174 -72 94 -136 170 -142 169 -34 -11 -91 -11 -125 -2 -76 20
-134 118 -117 197 18 85 93 143 178 138 62 -5 103 -27 134 -75 38 -57 41 -114
12 -171 l-24 -47 85 -115 c47 -63 95 -127 106 -142 71 -96 177 -230 183 -233
4 -1 21 10 38 25 17 16 51 45 77 66 34 29 45 43 41 60 -2 12 -6 52 -8 90 -6
80 -7 83 -45 90 -16 4 -45 20 -65 37 -117 103 -44 300 111 302 61 0 103 -20
138 -67 67 -86 46 -192 -49 -255 l-38 -24 7 -91 c4 -49 9 -98 11 -107 2 -11
-16 -34 -47 -60 -27 -24 -70 -61 -95 -84 l-45 -40 30 -32 c17 -17 36 -30 43
-27 12 4 40 7 188 21 36 4 70 7 75 8 6 1 40 23 77 49 65 47 66 49 56 78 -19
55 -2 116 47 164 143 144 364 -23 270 -204 -40 -78 -150 -108 -232 -65 l-46
25 -46 -32 c-25 -18 -57 -41 -71 -50 -14 -10 -41 -20 -60 -23 -39 -5 -163 -18
-197 -20 -12 -1 -25 -5 -29 -9 -4 -3 20 -42 53 -84 69 -90 83 -115 90 -155 11
-72 -56 -157 -182 -231 -38 -22 -72 -43 -75 -45 -9 -6 184 -181 220 -199 44
-22 87 -24 123 -6 62 31 446 328 566 437 33 31 67 94 76 144 2 15 20 81 40
146 41 141 44 187 12 247 -13 24 -52 98 -87 164 -147 281 -183 341 -212 367
-16 14 -110 59 -207 98 -97 40 -189 78 -206 85 -37 16 -570 233 -605 246 -24
9 -62 9 -91 1z m58 -1231 c203 -78 221 -87 243 -123 53 -88 -10 -199 -110
-193 -41 2 -340 119 -368 143 -63 56 -53 157 21 202 47 29 71 25 214 -29z"/>
</g>
</svg>
