<svg width="36" height="36" viewBox="0 0 36 36" fill="none" xmlns="http://www.w3.org/2000/svg">
<g id="Check">
<path id="Vector" d="M16.3326 26.096L28.6674 13.7611C28.9219 13.5067 29.0491 13.2053 29.0491 12.8571C29.0491 12.5089 28.9219 12.2076 28.6674 11.9531L26.6183 9.904C26.3639 9.64954 26.0625 9.5223 25.7143 9.5223C25.3661 9.5223 25.0647 9.64954 24.8103 9.904L15.4286 19.2857L11.1897 15.0469C10.9353 14.7924 10.6339 14.6652 10.2857 14.6652C9.93751 14.6652 9.63617 14.7924 9.38171 15.0469L7.3326 17.096C7.07814 17.3504 6.95091 17.6518 6.95091 18C6.95091 18.3482 7.07814 18.6495 7.3326 18.904L14.5246 26.096C14.779 26.3504 15.0804 26.4777 15.4286 26.4777C15.7768 26.4777 16.0781 26.3504 16.3326 26.096ZM33.4286 8.35713V27.6428C33.4286 29.2366 32.8627 30.5993 31.731 31.731C30.5993 32.8627 29.2366 33.4286 27.6429 33.4286H8.35716C6.76341 33.4286 5.40068 32.8627 4.26899 31.731C3.13729 30.5993 2.57144 29.2366 2.57144 27.6428V8.35713C2.57144 6.76338 3.13729 5.40065 4.26899 4.26896C5.40068 3.13726 6.76341 2.57141 8.35716 2.57141H27.6429C29.2366 2.57141 30.5993 3.13726 31.731 4.26896C32.8627 5.40065 33.4286 6.76338 33.4286 8.35713Z" fill="white"/>
</g>
</svg>
