<svg width="90" height="90" viewBox="0 0 90 90" fill="none" xmlns="http://www.w3.org/2000/svg">
<g id="&#208;&#190;&#208;&#177;&#209;&#138;&#208;&#181;&#208;&#180;&#208;&#184;&#208;&#189;&#208;&#181;&#208;&#189;&#208;&#184;&#208;&#181; &#208;&#184;&#208;&#183;&#208;&#190;&#208;&#177;&#209;&#128;&#208;&#176;&#208;&#182;&#208;&#181;&#208;&#189;&#208;&#184;&#208;&#185; 1">
<g id="Group">
<path id="Vector" d="M26.949 29.274C24.858 29.265 23.097 30.99 23.085 33.063C23.073 35.169 24.762 36.927 26.838 36.963C28.929 36.999 30.72 35.304 30.774 33.237C30.831 31.11 29.067 29.283 26.949 29.274ZM26.928 34.827C25.986 34.827 25.221 34.062 25.221 33.12C25.221 32.178 25.986 31.413 26.928 31.413C27.87 31.413 28.635 32.178 28.635 33.12C28.635 34.062 27.87 34.827 26.928 34.827Z" fill="white"/>
<path id="Vector_2" d="M73.7761 36.903C73.7641 34.86 72.1321 33.321 70.0651 33.243C69.6391 33.225 69.2131 33.24 68.6821 33.24L59.8921 33.219C57.7141 33.213 55.9471 31.455 55.9381 29.277C55.9351 28.761 55.9321 28.245 55.9291 27.726C55.9171 25.683 54.2851 24.144 52.2181 24.066C51.7921 24.048 51.3661 24.063 50.8351 24.063L22.5511 24C22.1461 24 21.9601 24 21.7621 24.015C19.3291 24.192 17.3461 25.785 17.4031 28.452C17.5231 34.146 17.4331 39.843 17.4421 45.537C17.4451 48.12 18.9661 49.665 21.5401 49.671C25.0441 49.68 28.5481 49.686 32.0521 49.689C33.8431 49.692 35.2951 51.144 35.2921 52.938C35.2921 53.529 35.2921 54.12 35.2921 54.714C35.2951 57.297 36.8161 58.842 39.3901 58.848C49.5751 58.869 59.7601 58.881 69.9451 58.884C72.0271 58.884 73.7641 57.267 73.7791 55.194C73.8151 49.095 73.8151 42.999 73.7761 36.903ZM33.9961 47.088H26.5471C26.5141 47.088 26.4931 47.049 26.5141 47.022C27.9811 45.084 29.2951 43.275 30.7021 41.538C31.2031 40.92 31.9921 40.986 32.4871 41.61C33.3511 42.699 34.1881 43.809 35.0521 44.961C35.2231 45.189 35.3161 45.468 35.3161 45.753C35.3161 45.759 35.3161 45.765 35.3161 45.771C35.3131 46.497 34.7221 47.088 33.9961 47.088ZM35.2531 37.626C35.2771 38.7 35.2921 39.777 35.3011 40.851C35.3011 40.89 35.2531 40.905 35.2291 40.878C32.5501 37.659 30.2821 37.728 27.7381 41.109C26.3881 42.9 25.1071 44.745 23.7031 46.497C22.9921 47.382 22.0771 47.421 21.1471 47.289C20.2381 47.16 20.0311 46.116 20.0311 45.354C20.0401 39.741 20.0341 34.128 20.0371 28.515C20.0371 26.913 20.3821 26.577 22.0381 26.58C30.6151 26.595 39.1921 26.622 47.7691 26.637C49.0921 26.64 50.4151 26.598 51.7351 26.58C52.8181 26.568 53.3761 27.066 53.3641 28.209C53.3611 28.62 53.3611 29.031 53.3611 29.439C53.3731 31.515 51.6901 33.201 49.6171 33.198L40.4011 33.177C39.9961 33.177 39.8101 33.177 39.6121 33.192C37.1761 33.369 35.1961 34.962 35.2531 37.626ZM44.3941 56.262C44.3611 56.262 44.3401 56.223 44.3611 56.196C45.8281 54.258 47.1421 52.449 48.5491 50.712C49.0501 50.094 49.8391 50.16 50.3341 50.784C51.7021 52.506 53.0011 54.285 54.4441 56.196C54.4651 56.223 54.4441 56.262 54.4111 56.262H44.3941ZM58.3351 56.316C58.0561 56.313 57.6841 56.16 57.5161 55.95C56.6281 54.837 55.7911 53.682 54.9121 52.509C54.9001 52.494 54.9001 52.473 54.9121 52.458C56.1691 50.952 57.3511 49.506 58.5721 48.09C59.2291 47.328 60.0301 47.343 60.6421 48.081C62.8141 50.709 64.9291 53.379 67.2541 56.268C67.2751 56.295 67.2571 56.334 67.2211 56.334C64.0441 56.331 61.1911 56.343 58.3351 56.316ZM71.1871 54.789C71.1841 55.239 71.2111 56.298 70.7011 56.454C70.6861 56.46 70.6681 56.454 70.6591 56.439C68.8951 54.231 67.3561 52.308 65.8171 50.382C64.8661 49.191 63.9241 47.994 62.9641 46.815C60.9631 44.361 58.4401 44.328 56.3551 46.74C55.3711 47.877 54.4231 49.047 53.4001 50.268C53.3851 50.286 53.3581 50.289 53.3431 50.274C53.1871 50.145 53.1241 50.103 53.0761 50.049C50.3971 46.83 48.1291 46.899 45.5851 50.28C44.2351 52.071 42.9541 53.916 41.5501 55.668C40.8391 56.553 39.9241 56.592 38.9941 56.46C38.0881 56.331 37.8781 55.287 37.8781 54.525C37.8871 48.912 37.8811 43.299 37.8841 37.686C37.8841 36.084 38.2291 35.748 39.8851 35.751C48.4621 35.766 57.0391 35.793 65.6161 35.808C66.9391 35.811 68.2621 35.769 69.5821 35.751C70.6561 35.739 71.2141 36.228 71.2111 37.35C71.2021 43.164 71.2171 48.978 71.1871 54.789Z" fill="white"/>
<path id="Vector_3" d="M44.4961 38.451C42.4051 38.442 40.6441 40.167 40.6321 42.24C40.6201 44.346 42.3091 46.104 44.3851 46.14C46.4761 46.176 48.2671 44.481 48.3211 42.414C48.3781 40.287 46.6171 38.46 44.4961 38.451ZM44.4781 44.001C43.5361 44.001 42.7711 43.236 42.7711 42.294C42.7711 41.352 43.5361 40.587 44.4781 40.587C45.4201 40.587 46.1851 41.352 46.1851 42.294C46.1851 43.236 45.4201 44.001 44.4781 44.001Z" fill="white"/>
</g>
</g>
</svg>
