<svg width="75" height="75" viewBox="0 0 75 75" fill="none" xmlns="http://www.w3.org/2000/svg">
<path d="M63.75 30C62.7554 30 61.8016 30.3951 61.0983 31.0984C60.3951 31.8016 60 32.7554 60 33.75V46.425L54.45 40.875C52.4903 38.9308 49.8417 37.8398 47.0813 37.8398C44.3208 37.8398 41.6722 38.9308 39.7125 40.875L37.0875 43.5375L27.7875 34.2C25.8278 32.2558 23.1792 31.1648 20.4188 31.1648C17.6583 31.1648 15.0097 32.2558 13.05 34.2L7.5 39.7875V18.75C7.5 17.7554 7.89509 16.8016 8.59835 16.0984C9.30161 15.3951 10.2554 15 11.25 15H41.25C42.2446 15 43.1984 14.6049 43.9016 13.9016C44.6049 13.1984 45 12.2446 45 11.25C45 10.2554 44.6049 9.30161 43.9016 8.59835C43.1984 7.89509 42.2446 7.5 41.25 7.5H11.25C8.26631 7.5 5.40483 8.68526 3.29505 10.795C1.18526 12.9048 0 15.7663 0 18.75V64.575C0.00988146 67.3368 1.1114 69.9827 3.06433 71.9357C5.01726 73.8886 7.66316 74.9901 10.425 75H57.075C58.0912 74.9919 59.1012 74.8404 60.075 74.55C62.2404 73.9426 64.1467 72.6416 65.5015 70.8465C66.8563 69.0514 67.5847 66.8614 67.575 64.6125V33.75C67.5751 33.2512 67.4757 32.7573 67.2825 32.2974C67.0894 31.8375 66.8065 31.4207 66.4503 31.0715C66.0941 30.7223 65.6718 30.4476 65.2081 30.2636C64.7444 30.0796 64.2487 29.99 63.75 30ZM11.25 67.5C10.2554 67.5 9.30161 67.1049 8.59835 66.4017C7.89509 65.6984 7.5 64.7446 7.5 63.75V50.3625L18.3375 39.525C18.8856 38.98 19.6271 38.6741 20.4 38.6741C21.1729 38.6741 21.9144 38.98 22.4625 39.525L50.475 67.5H11.25ZM60 63.75C59.9759 64.4761 59.7414 65.1796 59.325 65.775L42.375 48.75L45.0375 46.125C45.3064 45.8506 45.6273 45.6326 45.9814 45.4838C46.3356 45.335 46.7159 45.2583 47.1 45.2583C47.4842 45.2583 47.8644 45.335 48.2186 45.4838C48.5728 45.6326 48.8937 45.8506 49.1625 46.125L60 57.0375V63.75ZM71.25 7.5H67.5V3.75C67.5 2.75544 67.1049 1.80161 66.4017 1.09835C65.6984 0.395088 64.7446 0 63.75 0C62.7554 0 61.8016 0.395088 61.0983 1.09835C60.3951 1.80161 60 2.75544 60 3.75V7.5H56.25C55.2554 7.5 54.3016 7.89509 53.5983 8.59835C52.8951 9.30161 52.5 10.2554 52.5 11.25C52.5 12.2446 52.8951 13.1984 53.5983 13.9016C54.3016 14.6049 55.2554 15 56.25 15H60V18.75C60 19.7446 60.3951 20.6984 61.0983 21.4016C61.8016 22.1049 62.7554 22.5 63.75 22.5C64.7446 22.5 65.6984 22.1049 66.4017 21.4016C67.1049 20.6984 67.5 19.7446 67.5 18.75V15H71.25C72.2446 15 73.1984 14.6049 73.9017 13.9016C74.6049 13.1984 75 12.2446 75 11.25C75 10.2554 74.6049 9.30161 73.9017 8.59835C73.1984 7.89509 72.2446 7.5 71.25 7.5Z" fill="#313338"/>
</svg>
