<svg width="59" height="44" viewBox="0 0 59 44" fill="none" xmlns="http://www.w3.org/2000/svg">
<g id="&#208;&#161;&#208;&#187;&#208;&#190;&#208;&#185;_1">
<path id="Vector" d="M58.4708 21.7766L52.5851 11.0154C52.0894 10.1118 51.2913 9.40387 50.3219 9.01611L28.7215 0.332414C27.65 -0.0980359 26.4474 -0.112266 25.365 0.300396L5.25147 7.92398C3.88482 8.44336 2.86074 9.57463 2.50359 10.9656L0.13472 20.2007C-0.32812 22.0114 0.426273 23.9146 2.01888 24.9463L8.36744 29.0551C8.96877 29.4429 9.46441 29.9658 9.81427 30.5813L12.2123 34.7755C12.7845 35.7787 13.7393 36.5222 14.8654 36.853L25.6383 39.9907C26.4838 40.2361 27.384 40.2361 28.2295 39.9871L28.9766 39.7666C31.6989 38.9235 38.248 36.3799 39.0898 33.6798C39.2903 33.0395 39.1299 32.4205 38.6051 31.7872L38.5905 31.7695L31.2689 22.3031L18.2219 23.4877L12.1066 19.8129C11.3704 20.6347 10.288 21.1576 9.08175 21.1576C6.8623 21.1576 5.06561 19.4003 5.06561 17.2373C5.06561 15.0744 6.86594 13.317 9.08175 13.317C11.3012 13.317 13.0979 15.0744 13.0979 17.2373C13.0979 17.7603 12.9922 18.2583 12.8027 18.7137L18.539 22.1608L30.3286 21.09L24.2571 13.2388C23.6995 13.5234 23.069 13.6835 22.3984 13.6835C20.179 13.6835 18.3823 11.9261 18.3823 9.76317C18.3823 7.60025 20.1826 5.84288 22.3984 5.84288C24.6179 5.84288 26.4146 7.60025 26.4146 9.76317C26.4146 10.8091 25.9954 11.7553 25.3139 12.4597L33.9913 23.6798L37.6612 20.6169L37.2421 16.2413C35.1575 16.0954 33.5139 14.4021 33.5139 12.3316C33.5139 10.1652 35.3142 8.41134 37.53 8.41134C39.7495 8.41134 41.5461 10.1687 41.5461 12.3316C41.5461 14.1495 40.2779 15.6792 38.5577 16.1239L39.0424 21.1647L34.7894 24.7151L35.9228 26.1807L42.6796 25.4799L45.7809 23.3277C45.5222 22.8083 45.3764 22.2284 45.3764 21.613C45.3764 19.4465 47.1768 17.6927 49.3926 17.6927C51.6084 17.6927 53.4087 19.4501 53.4087 21.613C53.4087 23.7795 51.6084 25.5333 49.3926 25.5333C48.281 25.5333 47.2752 25.0921 46.5463 24.3807L43.1606 26.7286L36.8521 27.3831L39.6365 30.9797C40.4346 31.9402 40.6788 33.0039 40.3508 34.0569C39.826 35.7431 37.8216 37.4151 34.3958 39.0337C34.5416 39.2187 34.7019 39.393 34.8769 39.5531L38.2735 42.6765C39.815 44.0319 41.4769 44.473 42.9784 43.3987L48.0514 39.7666C48.117 39.7203 48.179 39.6741 48.2409 39.6243L55.3694 33.9359C56.08 33.3667 56.5976 32.6019 56.8527 31.741L58.817 25.0779C59.1523 23.9716 59.0211 22.7869 58.4708 21.7766ZM21.1958 28.3685C21.8846 26.9349 23.6375 26.3195 25.1099 26.9918L31.3892 29.3966C31.5058 29.4322 31.6188 29.4749 31.7317 29.5283C33.2004 30.2006 33.8346 31.9082 33.1421 33.3383C32.5044 34.6616 30.9628 35.2842 29.5743 34.8466C29.4576 34.8111 29.3447 34.7684 29.2317 34.715L22.9524 32.3102C22.8357 32.2746 22.7228 32.2319 22.6098 32.1786C21.1375 31.5062 20.507 29.7986 21.1958 28.3685Z" fill="url(#paint0_linear_1751_311)"/>
</g>
<defs>
<linearGradient id="paint0_linear_1751_311" x1="0.000919304" y1="21.9984" x2="59.0018" y2="21.9984" gradientUnits="userSpaceOnUse">
<stop stop-color="#312782"/>
<stop offset="1" stop-color="#E5007E"/>
</linearGradient>
</defs>
</svg>
