<svg width="90" height="90" viewBox="0 0 90 90" fill="none" xmlns="http://www.w3.org/2000/svg">
<g id="&#208;&#152;&#208;&#189;&#208;&#191;&#208;&#181;&#209;&#130;&#208;&#184;&#208;&#189;&#208;&#179;">
<g id="Group">
<path id="Vector" d="M50.8351 24.0629C51.3661 24.0629 51.7921 24.0479 52.2181 24.0659C54.2851 24.1469 55.9171 25.6829 55.9291 27.7259C55.9681 33.8219 55.9681 39.9179 55.9291 46.0139C55.9171 48.0839 54.1801 49.7039 52.0951 49.7039C41.9101 49.7009 31.7251 49.6919 21.5401 49.6679C18.9661 49.6619 17.4481 48.1169 17.4421 45.5339C17.4331 39.8399 17.5231 34.1399 17.4031 28.4489C17.3461 25.7849 19.3261 24.1919 21.7621 24.0119C21.9631 23.9969 22.1461 23.9969 22.5511 23.9969M35.5231 41.1269C36.5551 39.8939 37.5121 38.7149 38.5051 37.5659C40.5901 35.1539 43.1131 35.1839 45.1141 37.6409C46.0771 38.8199 47.0161 40.0199 47.9671 41.2079C49.5091 43.1399 51.0541 45.0689 52.8241 47.2859C53.3611 47.1569 53.3341 46.0709 53.3371 45.6149C53.3671 39.8009 53.3521 33.9899 53.3611 28.1759C53.3641 27.0539 52.8061 26.5649 51.7321 26.5769C50.4091 26.5919 49.0861 26.6339 47.7661 26.6339C39.1891 26.6189 30.6121 26.5949 22.0351 26.5769C20.3791 26.5739 20.0341 26.9099 20.0341 28.5119C20.0311 34.1249 20.0371 39.7379 20.0281 45.3509C20.0281 46.1159 20.2351 47.1569 21.1441 47.2859C22.0741 47.4179 22.9921 47.3789 23.7001 46.4939C25.1041 44.7449 26.3851 42.8999 27.7351 41.1059C30.2791 37.7279 32.5471 37.6589 35.2261 40.8749C35.2771 40.9349 35.3461 40.9769 35.5231 41.1269ZM49.4551 47.1569C47.1091 44.2439 44.9791 41.5499 42.7921 38.9039C42.1801 38.1629 41.3791 38.1509 40.7221 38.9129C39.4951 40.3379 38.3071 41.7929 37.0411 43.3079C37.9261 44.4899 38.7691 45.6539 39.6661 46.7759C39.8341 46.9859 40.2061 47.1419 40.4851 47.1419C43.3681 47.1659 46.2481 47.1569 49.4551 47.1569ZM36.6451 47.0879C35.1811 45.1499 33.8671 43.3529 32.4841 41.6099C31.9891 40.9889 31.2031 40.9199 30.6991 41.5379C29.2771 43.2929 27.9481 45.1229 26.4601 47.0849C29.9311 47.0879 33.1501 47.0879 36.6451 47.0879Z" fill="white"/>
</g>
<path id="Vector_2" d="M26.949 29.274C24.858 29.265 23.097 30.99 23.085 33.063C23.073 35.169 24.762 36.927 26.838 36.963C28.929 36.999 30.72 35.304 30.774 33.237C30.831 31.11 29.067 29.283 26.949 29.274ZM26.928 34.827C25.986 34.827 25.221 34.062 25.221 33.12C25.221 32.178 25.986 31.413 26.928 31.413C27.87 31.413 28.635 32.178 28.635 33.12C28.635 34.062 27.87 34.827 26.928 34.827Z" fill="white"/>
<path id="Vector_3" d="M56.3759 35.1331H37.0439V52.4791H56.3759V35.1331Z" fill="#656565"/>
<g id="Group_2">
<path id="Vector_4" d="M68.682 33.237C69.213 33.237 69.639 33.222 70.065 33.24C72.132 33.321 73.764 34.857 73.776 36.9C73.815 42.996 73.815 49.092 73.776 55.188C73.764 57.258 72.027 58.878 69.942 58.878C59.757 58.875 49.572 58.866 39.387 58.842C36.813 58.836 35.295 57.291 35.289 54.708C35.28 49.014 35.37 43.314 35.25 37.623C35.193 34.959 37.173 33.366 39.609 33.186C39.81 33.171 39.993 33.171 40.398 33.171M53.373 50.304C54.405 49.071 55.362 47.892 56.355 46.743C58.44 44.331 60.963 44.361 62.964 46.818C63.927 47.997 64.866 49.197 65.817 50.385C67.359 52.317 68.904 54.246 70.674 56.463C71.211 56.334 71.184 55.248 71.187 54.792C71.217 48.978 71.202 43.167 71.211 37.353C71.214 36.231 70.656 35.742 69.582 35.754C68.259 35.769 66.936 35.811 65.616 35.811C57.039 35.796 48.462 35.772 39.885 35.754C38.229 35.751 37.884 36.087 37.884 37.689C37.881 43.302 37.887 48.915 37.878 54.528C37.878 55.293 38.085 56.334 38.994 56.463C39.924 56.595 40.842 56.556 41.55 55.671C42.954 53.922 44.235 52.077 45.585 50.283C48.129 46.905 50.397 46.836 53.076 50.052C53.124 50.109 53.193 50.151 53.373 50.304ZM67.305 56.331C64.959 53.418 62.829 50.724 60.642 48.078C60.03 47.337 59.229 47.325 58.572 48.087C57.345 49.512 56.157 50.967 54.891 52.482C55.776 53.664 56.619 54.828 57.516 55.95C57.684 56.16 58.056 56.316 58.335 56.316C61.215 56.343 64.095 56.331 67.305 56.331ZM54.495 56.262C53.031 54.324 51.717 52.527 50.334 50.784C49.839 50.163 49.053 50.094 48.549 50.712C47.127 52.467 45.798 54.297 44.31 56.259C47.778 56.262 51 56.262 54.495 56.262Z" fill="white"/>
</g>
<path id="Vector_5" d="M65.8641 38.451C63.7731 38.442 62.0121 40.167 62.0001 42.24C61.9881 44.346 63.6771 46.104 65.7531 46.14C67.8441 46.176 69.6351 44.481 69.6891 42.414C69.7461 40.287 67.9851 38.46 65.8641 38.451ZM65.8461 44.001C64.9041 44.001 64.1391 43.236 64.1391 42.294C64.1391 41.352 64.9041 40.587 65.8461 40.587C66.7881 40.587 67.5531 41.352 67.5531 42.294C67.5531 43.236 66.7881 44.001 65.8461 44.001Z" fill="white"/>
</g>
</svg>
