<svg width="22" height="22" viewBox="0 0 22 22" fill="none" xmlns="http://www.w3.org/2000/svg">
<g id="Magnifier">
<path id="Vector" d="M19.7473 18.4825L16.4102 15.17C17.7056 13.5537 18.3329 11.5021 18.1631 9.43721C17.9934 7.37227 17.0396 5.45088 15.4978 4.06813C13.9559 2.68538 11.9433 1.94636 9.87376 2.00303C7.80419 2.05971 5.83498 2.90777 4.37103 4.37283C2.90708 5.83789 2.05966 7.8086 2.00303 9.87974C1.9464 11.9509 2.68486 13.965 4.06656 15.508C5.44826 17.051 7.36819 18.0056 9.43156 18.1754C11.4949 18.3453 13.5449 17.7175 15.16 16.4212L18.47 19.7337C18.5536 19.8181 18.6531 19.8851 18.7627 19.9308C18.8723 19.9765 18.9899 20 19.1086 20C19.2274 20 19.3449 19.9765 19.4546 19.9308C19.5642 19.8851 19.6636 19.8181 19.7473 19.7337C19.9094 19.5659 20 19.3416 20 19.1081C20 18.8747 19.9094 18.6504 19.7473 18.4825ZM10.114 16.4212C8.8687 16.4212 7.65139 16.0516 6.61597 15.3593C5.58056 14.6669 4.77355 13.6828 4.297 12.5315C3.82045 11.3801 3.69577 10.1132 3.93871 8.89088C4.18165 7.6686 4.78131 6.54586 5.66186 5.66464C6.54241 4.78343 7.66429 4.18331 8.88565 3.94018C10.107 3.69706 11.373 3.82184 12.5235 4.29875C13.674 4.77566 14.6573 5.58328 15.3491 6.61948C16.041 7.65568 16.4102 8.87392 16.4102 10.1202C16.4102 11.7913 15.7469 13.394 14.5661 14.5757C13.3853 15.7573 11.7839 16.4212 10.114 16.4212Z" fill="#656565"/>
</g>
</svg>
