<svg width="20" height="20" viewBox="0 0 20 20" fill="none" xmlns="http://www.w3.org/2000/svg">
<path fill-rule="evenodd" clip-rule="evenodd" d="M10.0003 18.3333C14.6028 18.3333 18.3337 14.6025 18.3337 9.99999C18.3337 5.39749 14.6028 1.66666 10.0003 1.66666C5.39783 1.66666 1.66699 5.39749 1.66699 9.99999C1.66699 14.6025 5.39783 18.3333 10.0003 18.3333ZM9.09532 11.0633C9.02532 11.53 9.42199 11.915 9.89366 11.915H10.2853C10.3966 11.915 10.5037 11.8726 10.5848 11.7964C10.6659 11.7203 10.715 11.616 10.722 11.505C10.7695 11.0667 10.9578 10.6833 11.2853 10.3558L11.8103 9.83916C12.2203 9.42666 12.507 9.05249 12.6712 8.71666C12.8353 8.37582 12.917 8.01499 12.917 7.63416C12.917 6.79666 12.6645 6.14916 12.1595 5.69249C11.6545 5.23082 10.9445 4.99999 10.0295 4.99999C9.12283 4.99999 8.40699 5.24166 7.87949 5.72582C7.56725 6.01544 7.33895 6.38395 7.21866 6.79249C7.06533 7.29582 7.51866 7.73499 8.04366 7.73499C8.48866 7.73499 8.82116 7.37249 9.13033 7.03499C9.17366 6.98749 9.21616 6.93999 9.25866 6.89499C9.45366 6.68916 9.71033 6.58666 10.0295 6.58666C10.7028 6.58666 11.0395 6.96499 11.0395 7.72166C11.0395 7.97249 10.9745 8.21249 10.8453 8.44082C10.7162 8.66499 10.4545 8.95832 10.062 9.32082C9.67366 9.67916 9.40616 10.045 9.25866 10.4167C9.18616 10.6008 9.13199 10.8167 9.09532 11.0633ZM9.14283 13.2392C8.94866 13.4317 8.85116 13.6783 8.85116 13.9783C8.85116 14.2742 8.94616 14.5183 9.13616 14.7117C9.33033 14.9033 9.58533 15 9.90033 15C10.2153 15 10.467 14.9033 10.6578 14.7108C10.852 14.5183 10.9495 14.2742 10.9495 13.9783C10.9495 13.6783 10.8495 13.4317 10.6512 13.2392C10.457 13.0417 10.2062 12.9433 9.90033 12.9433C9.59366 12.9433 9.34199 13.0417 9.14283 13.2392Z" fill="#ACACAC"/>
</svg>
