<svg width="90" height="90" viewBox="0 0 90 90" fill="none" xmlns="http://www.w3.org/2000/svg">
<g id="&#209;&#129;&#209;&#130;&#208;&#184;&#208;&#187;&#208;&#184;&#208;&#183;&#208;&#176;&#209;&#134;&#208;&#184;&#209;&#143; 1">
<g id="Group">
<path id="Vector" d="M50.8351 24.0629C51.3661 24.0629 51.7921 24.0479 52.2181 24.0659C54.2851 24.1469 55.9171 25.6829 55.9291 27.7259C55.9681 33.8219 55.9681 39.9179 55.9291 46.0139C55.9171 48.0839 54.1801 49.7039 52.0951 49.7039C41.9101 49.7009 31.7251 49.6919 21.5401 49.6679C18.9661 49.6619 17.4481 48.1169 17.4421 45.5339C17.4331 39.8399 17.5231 34.1399 17.4031 28.4489C17.3461 25.7849 19.3261 24.1919 21.7621 24.0119C21.9631 23.9969 22.1461 23.9969 22.5511 23.9969M35.5231 41.1269C36.5551 39.8939 37.5121 38.7149 38.5051 37.5659C40.5901 35.1539 43.1131 35.1839 45.1141 37.6409C46.0771 38.8199 47.0161 40.0199 47.9671 41.2079C49.5091 43.1399 51.0541 45.0689 52.8241 47.2859C53.3611 47.1569 53.3341 46.0709 53.3371 45.6149C53.3671 39.8009 53.3521 33.9899 53.3611 28.1759C53.3641 27.0539 52.8061 26.5649 51.7321 26.5769C50.4091 26.5919 49.0861 26.6339 47.7661 26.6339C39.1891 26.6189 30.6121 26.5949 22.0351 26.5769C20.3791 26.5739 20.0341 26.9099 20.0341 28.5119C20.0311 34.1249 20.0371 39.7379 20.0281 45.3509C20.0281 46.1159 20.2351 47.1569 21.1441 47.2859C22.0741 47.4179 22.9921 47.3789 23.7001 46.4939C25.1041 44.7449 26.3851 42.8999 27.7351 41.1059C30.2791 37.7279 32.5471 37.6589 35.2261 40.8749C35.2771 40.9349 35.3461 40.9769 35.5231 41.1269ZM49.4551 47.1569C47.1091 44.2439 44.9791 41.5499 42.7921 38.9039C42.1801 38.1629 41.3791 38.1509 40.7221 38.9129C39.4951 40.3379 38.3071 41.7929 37.0411 43.3079C37.9261 44.4899 38.7691 45.6539 39.6661 46.7759C39.8341 46.9859 40.2061 47.1419 40.4851 47.1419C43.3681 47.1659 46.2481 47.1569 49.4551 47.1569ZM36.6451 47.0879C35.1811 45.1499 33.8671 43.3529 32.4841 41.6099C31.9891 40.9889 31.2031 40.9199 30.6991 41.5379C29.2771 43.2929 27.9481 45.1229 26.4601 47.0849C29.9311 47.0879 33.1501 47.0879 36.6451 47.0879Z" fill="white"/>
</g>
<path id="Vector_2" d="M26.949 29.274C24.858 29.265 23.097 30.99 23.085 33.063C23.073 35.169 24.762 36.927 26.838 36.963C28.929 36.999 30.72 35.304 30.774 33.237C30.831 31.11 29.067 29.283 26.949 29.274ZM26.928 34.827C25.986 34.827 25.221 34.062 25.221 33.12C25.221 32.178 25.986 31.413 26.928 31.413C27.87 31.413 28.635 32.178 28.635 33.12C28.635 34.062 27.87 34.827 26.928 34.827Z" fill="white"/>
<path id="Vector_3" d="M56.3759 35.1331H37.0439V52.4791H56.3759V35.1331Z" fill="#656565"/>
<g id="Group_2">
<path id="Vector_4" d="M68.682 33.237C69.213 33.237 69.639 33.24 70.065 33.24C73.806 33.24 73.776 33.24 73.776 36.9C73.815 42.996 73.815 49.092 73.776 55.188C73.776 58.878 73.776 58.878 69.942 58.878C59.757 58.875 49.572 58.866 39.387 58.842C35.25 58.842 35.289 59.037 35.289 54.708C35.289 49.014 35.25 43.317 35.25 37.623C35.25 32.844 35.25 33.186 39.609 33.186C39.81 33.186 39.993 33.171 40.398 33.171M53.154 50.127C53.274 50.226 53.451 50.208 53.55 50.091C54.513 48.936 55.419 47.826 56.352 46.746C60.447 42.213 59.127 42.213 62.961 46.821C63.924 48 64.863 49.2 65.814 50.388C67.323 52.275 68.832 54.165 70.557 56.319C70.632 56.412 70.761 56.451 70.872 56.409C71.205 56.289 71.184 56.055 71.184 54.795C71.214 48.981 71.199 43.17 71.208 37.356C71.208 35.757 71.208 35.757 69.579 35.757C68.256 35.757 66.933 35.814 65.613 35.814C57.036 35.799 48.459 35.775 39.882 35.757C37.881 35.757 37.881 35.754 37.881 37.692C37.881 43.305 37.875 48.918 37.875 54.531C37.875 56.466 37.875 56.466 38.991 56.466C39.93 56.466 40.839 56.559 41.547 55.674C42.951 53.925 44.232 52.08 45.582 50.286C49.893 44.103 49.035 44.607 53.073 50.055C53.097 50.076 53.121 50.097 53.154 50.127ZM66.72 56.331C66.957 56.331 67.089 56.058 66.942 55.872C64.764 53.112 62.943 50.376 60.642 48.075C59.802 47.235 59.658 46.794 58.572 48.084C57.489 49.371 56.409 50.661 55.287 52.005C55.056 52.281 55.044 52.683 55.26 52.971C56.013 53.985 56.745 54.981 57.516 55.947C57.684 56.157 58.056 56.313 58.335 56.313C61.038 56.34 63.744 56.334 66.72 56.331ZM53.928 56.262C54.162 56.262 54.294 55.995 54.153 55.809C52.824 54.045 51.609 52.392 50.334 50.784C49.839 50.163 49.404 49.701 48.549 50.712C47.313 52.179 46.194 53.739 44.973 55.38C44.703 55.743 44.961 56.262 45.414 56.262H53.928Z" fill="white"/>
</g>
<path id="Vector_5" d="M43.7959 37.602C41.7049 37.593 39.9439 40.167 39.9319 42.24C39.9199 44.346 41.6089 46.785 43.6849 46.821C45.7759 46.8569 47.5669 44.484 47.6209 42.414C47.6779 40.287 45.9169 37.611 43.7959 37.602ZM43.7779 44.679C42.8359 44.679 42.0709 43.236 42.0709 42.294C42.0709 41.352 42.8359 39.738 43.7779 39.738C44.7199 39.738 45.4849 41.352 45.4849 42.294C45.4849 43.236 44.7199 44.679 43.7779 44.679Z" fill="white"/>
</g>
</svg>
