<svg width="70" height="62" viewBox="0 0 70 62" fill="none" xmlns="http://www.w3.org/2000/svg">
<g id="Frame" clip-path="url(#clip0_592_1134)">
<path id="Vector" d="M20.0268 28.9727C20.0268 28.4167 20.0268 27.9712 20.0268 27.5258C20.0268 21.9807 20.0237 16.4356 20.0298 10.8905C20.0329 7.39145 22.039 5.38539 25.5258 5.37925C28.6869 5.3731 31.8511 5.29016 35.0061 5.40997C36.0076 5.4499 37.1044 5.85849 37.9584 6.41146C40.8154 8.26392 43.568 10.2823 46.3912 12.1839C48.1853 13.3912 49.0178 15.0317 49.0055 17.1729C48.981 20.6228 48.9932 24.0728 48.9932 27.5227C48.9932 27.9681 48.9932 28.4136 48.9932 29.0341C49.537 29.0341 49.9732 29.0188 50.4095 29.0372C52.5261 29.1202 54.1973 30.693 54.2096 32.7851C54.2495 39.0276 54.2495 45.27 54.2096 51.5124C54.1973 53.6321 52.4186 55.2911 50.2835 55.2911C39.8539 55.288 29.4242 55.2788 18.9945 55.2542C16.3587 55.2481 14.8043 53.6659 14.7981 51.0209C14.7889 45.1901 14.8811 39.3532 14.7582 33.5255C14.6998 30.7975 16.7519 28.6993 19.2311 29.0218C19.4185 29.0495 19.6243 29.0003 20.0268 28.9727ZM33.3104 46.5111C34.3672 45.2485 35.3471 44.0412 36.364 42.8646C38.4991 40.3946 41.0827 40.4253 43.1318 42.9414C44.1179 44.1487 45.0794 45.3775 46.0533 46.594C47.6323 48.5725 49.2144 50.5478 51.027 52.8181C51.5769 52.686 51.5492 51.5739 51.5523 51.1069C51.583 45.1533 51.5676 39.2027 51.5769 33.249C51.5799 32.1001 51.0085 31.5993 49.9087 31.6116C48.5539 31.627 47.1992 31.67 45.8475 31.67C37.0644 31.6546 28.2814 31.63 19.4984 31.6116C17.8026 31.6085 17.4493 31.9526 17.4493 33.5931C17.4462 39.3409 17.4524 45.0887 17.4432 50.8366C17.4432 51.6199 17.6551 52.686 18.586 52.8181C19.5383 52.9532 20.4784 52.9133 21.2034 52.007C22.6411 50.216 23.9529 48.3267 25.3353 46.4896C27.9404 43.0305 30.2629 42.9598 33.0062 46.253C33.0554 46.3145 33.126 46.3575 33.3104 46.5111ZM46.3298 28.9143C46.3298 25.6364 46.3666 22.5183 46.3144 19.4032C46.2898 17.8979 45.316 17.0377 43.7554 17.0101C41.9521 16.9794 40.1457 17.007 38.3393 17.0009C36.834 16.9978 36.4899 16.6476 36.4838 15.0993C36.4746 13.5817 36.5053 12.0641 36.4715 10.5465C36.4347 8.89062 35.6083 8.0458 33.9586 8.01201C31.1292 7.95671 28.2998 7.92599 25.4674 7.9352C23.5658 7.94135 22.6872 8.85375 22.681 10.7369C22.6718 13.8151 22.678 16.8903 22.678 19.9685C22.678 22.9177 22.678 25.8668 22.678 28.9143C30.5762 28.9143 38.3916 28.9143 46.3298 28.9143ZM47.577 52.686C45.1747 49.703 42.9935 46.9443 40.754 44.2347C40.1273 43.4759 39.307 43.4636 38.6342 44.2439C37.3778 45.7031 36.1612 47.1931 34.8648 48.7445C35.7711 49.9549 36.6343 51.1469 37.5529 52.2958C37.7249 52.5108 38.1059 52.6706 38.3916 52.6706C41.3407 52.6952 44.2899 52.686 47.577 52.686ZM34.4562 52.6153C32.9571 50.6307 31.6115 48.7906 30.1953 47.0057C29.6884 46.3698 28.8835 46.2991 28.3674 46.932C26.9113 48.7291 25.5503 50.6031 24.0266 52.6122C27.581 52.6153 30.8773 52.6153 34.4562 52.6153ZM44.6924 14.3374C44.3421 14.0732 41.0243 11.7138 39.1903 10.4236C39.1903 11.8828 39.1903 13.1024 39.1903 14.3374C39.5067 14.3374 43.2301 14.3374 44.6924 14.3374Z" fill="white"/>
<path id="Vector_2" d="M33.1168 26.3706C31.0678 26.3706 29.0156 26.3644 26.9665 26.3736C26.0818 26.3767 25.3967 26.1064 25.3629 25.1049C25.3291 24.1034 25.9927 23.7409 26.8805 23.7378C31.1015 23.7224 37.7556 23.7163 41.9766 23.7255C42.8184 23.7255 43.4666 24.131 43.4789 25.0127C43.4912 25.9497 42.8706 26.3767 41.9429 26.3736C39.8108 26.3644 35.2488 26.3706 33.1168 26.3706Z" fill="white"/>
<path id="Vector_3" d="M33.2489 18.4846C35.298 18.4846 35.4946 18.5 37.5436 18.4785C38.4499 18.4692 39.1473 18.7887 39.1903 19.7288C39.2333 20.7518 38.5144 21.1358 37.5652 21.1358C33.424 21.1358 31.1384 21.1358 26.9973 21.1297C26.0756 21.1266 25.3291 20.8224 25.3629 19.7442C25.3936 18.7519 26.0879 18.4754 26.9758 18.4785C29.0678 18.4908 31.1568 18.4846 33.2489 18.4846Z" fill="white"/>
<path id="Vector_4" d="M29.2492 15.818C28.3921 15.818 27.5319 15.8303 26.6748 15.8149C25.8484 15.8026 25.3538 15.3879 25.363 14.54C25.3692 13.6983 25.8484 13.2774 26.6871 13.2743C28.4044 13.2713 30.1186 13.2774 31.8359 13.2743C32.693 13.2743 33.1661 13.7597 33.1661 14.5492C33.1661 15.3418 32.6715 15.818 31.8267 15.8211C30.9634 15.818 30.1063 15.818 29.2492 15.818Z" fill="white"/>
</g>
<defs>
<clipPath id="clip0_592_1134">
<rect width="70" height="61.6194" fill="white"/>
</clipPath>
</defs>
</svg>
