<svg width="75" height="75" viewBox="0 0 75 75" fill="none" xmlns="http://www.w3.org/2000/svg">
<g id="Add Image">
<path id="Vector" d="M59.55 31.2C58.7146 31.2 57.9134 31.5319 57.3226 32.1226C56.7319 32.7134 56.4 33.5146 56.4 34.35V44.997L51.738 40.335C50.0919 38.7019 47.8671 37.7855 45.5483 37.7855C43.2295 37.7855 41.0046 38.7019 39.3585 40.335L37.1535 42.5715L29.3415 34.728C27.6954 33.0949 25.4705 32.1785 23.1518 32.1785C20.833 32.1785 18.6081 33.0949 16.962 34.728L12.3 39.4215V21.75C12.3 20.9146 12.6319 20.1134 13.2226 19.5226C13.8134 18.9319 14.6146 18.6 15.45 18.6H40.65C41.4854 18.6 42.2866 18.2681 42.8774 17.6774C43.4681 17.0866 43.8 16.2854 43.8 15.45C43.8 14.6146 43.4681 13.8134 42.8774 13.2226C42.2866 12.6319 41.4854 12.3 40.65 12.3H15.45C12.9437 12.3 10.5401 13.2956 8.76784 15.0678C6.99562 16.8401 6 19.2437 6 21.75V60.243C6.0083 62.5629 6.93358 64.7855 8.57404 66.426C10.2145 68.0664 12.4371 68.9917 14.757 69H53.943C54.7966 68.9932 55.645 68.8659 56.463 68.622C58.2819 68.1118 59.8832 67.019 61.0213 65.5111C62.1593 64.0032 62.7711 62.1636 62.763 60.2745V34.35C62.7631 33.931 62.6796 33.5162 62.5173 33.1298C62.3551 32.7435 62.1174 32.3934 61.8182 32.1C61.519 31.8067 61.1643 31.576 60.7748 31.4215C60.3853 31.2669 59.9689 31.1916 59.55 31.2ZM15.45 62.7C14.6146 62.7 13.8134 62.3681 13.2226 61.7774C12.6319 61.1866 12.3 60.3854 12.3 59.55V48.3045L21.4035 39.201C21.8639 38.7432 22.4867 38.4862 23.136 38.4862C23.7853 38.4862 24.4081 38.7432 24.8685 39.201L48.399 62.7H15.45ZM56.4 59.55C56.3798 60.16 56.1828 60.7509 55.833 61.251L41.595 46.95L43.8315 44.745C44.0573 44.5145 44.3269 44.3314 44.6244 44.2064C44.9219 44.0814 45.2413 44.017 45.564 44.017C45.8867 44.017 46.2061 44.0814 46.5036 44.2064C46.8011 44.3314 47.0707 44.5145 47.2965 44.745L56.4 53.9115V59.55ZM65.85 12.3H62.7V9.15C62.7 8.31457 62.3681 7.51335 61.7774 6.92261C61.1866 6.33187 60.3854 6 59.55 6C58.7146 6 57.9134 6.33187 57.3226 6.92261C56.7319 7.51335 56.4 8.31457 56.4 9.15V12.3H53.25C52.4146 12.3 51.6134 12.6319 51.0226 13.2226C50.4319 13.8134 50.1 14.6146 50.1 15.45C50.1 16.2854 50.4319 17.0866 51.0226 17.6774C51.6134 18.2681 52.4146 18.6 53.25 18.6H56.4V21.75C56.4 22.5854 56.7319 23.3866 57.3226 23.9774C57.9134 24.5681 58.7146 24.9 59.55 24.9C60.3854 24.9 61.1866 24.5681 61.7774 23.9774C62.3681 23.3866 62.7 22.5854 62.7 21.75V18.6H65.85C66.6854 18.6 67.4867 18.2681 68.0774 17.6774C68.6681 17.0866 69 16.2854 69 15.45C69 14.6146 68.6681 13.8134 68.0774 13.2226C67.4867 12.6319 66.6854 12.3 65.85 12.3Z" fill="#656565"/>
</g>
</svg>
