<svg xmlns="http://www.w3.org/2000/svg" width="41" height="41" viewBox="0 0 41 41" fill="none">
  <g clip-path="url(#clip0_1395_15051)">
    <path d="M34.0946 10.4615C33.5172 9.4613 32.5711 8.78508 31.6508 8.53848C30.7305 8.29189 29.5731 8.40448 28.5729 8.98194L18.2376 14.949L14.3451 14.7514C13.6525 14.7068 13.0562 14.8288 12.3894 15.2138C11.5559 15.695 11.0816 16.4134 10.835 17.3337C10.5884 18.2539 10.7715 19.1484 11.1212 19.9467L15.8371 28.1149C16.7033 29.6152 18.7716 30.3103 20.6053 29.2516C21.2721 28.8666 21.6759 28.4112 21.9835 27.7891L23.6272 24.284L33.7958 18.4132C35.7961 17.2583 36.4655 14.7604 35.2753 12.8915L34.0946 10.4615ZM19.495 26.5586C19.4598 26.6901 19.2931 26.7864 19.1264 26.8826C18.793 27.0751 18.3986 26.9694 18.2061 26.636L13.4902 18.4678C13.2977 18.1344 13.4034 17.74 13.7368 17.5475C13.9035 17.4513 14.035 17.4865 14.1664 17.5218L17.7608 17.7803L21.1293 23.6147L19.495 26.5586ZM32.5798 16.1147L23.0781 21.6005L20.3833 16.933L29.885 11.4472C30.5518 11.0622 31.3406 11.2736 31.7256 11.9404L33.073 14.2741C33.4932 14.8094 33.2466 15.7297 32.5798 16.1147ZM13.9915 31.8476L14.9306 30.972C15.5012 30.4203 15.4496 29.5611 14.8979 28.9905C14.6702 28.7886 14.5388 28.7534 14.2758 28.6829C13.8814 28.5772 13.2851 28.6992 12.9165 29.0232L11.9773 29.8988C11.5382 30.4857 11.4583 31.3098 12.01 31.8803C12.5969 32.3194 13.4209 32.3993 13.9915 31.8476ZM9.78258 24.9426C9.38817 24.8369 9.09 24.8979 8.75661 25.0904L7.58973 25.7641C6.92294 26.1491 6.71157 26.9379 7.09655 27.6047C7.48152 28.2715 8.27034 28.4828 8.93713 28.0979L10.104 27.4242C10.7708 27.0392 10.9822 26.2504 10.5972 25.5836C10.4047 25.2502 10.177 25.0483 9.78258 24.9426ZM7.55012 22.2307L8.77802 21.8552C9.54105 21.6369 9.88388 20.8833 9.79708 20.1555C9.63982 19.6907 9.31586 19.3221 8.78998 19.1811C8.52704 19.1107 8.39557 19.0755 8.09741 19.1365L6.86951 19.512C6.10648 19.7303 5.76364 20.4839 5.85045 21.2117C6.06872 21.9747 6.82231 22.3175 7.55012 22.2307Z" fill="white"/>
    <path d="M25.2596 15.5623L24.0928 16.236C23.426 16.6209 23.2146 17.4098 23.5996 18.0765C23.9845 18.7433 24.7734 18.9547 25.4402 18.5697L26.607 17.896C27.2738 17.5111 27.4852 16.7222 27.1002 16.0554C26.8467 15.4239 25.9264 15.1773 25.2596 15.5623Z" fill="white"/>
  </g>
  <defs>
    <clipPath id="clip0_1395_15051">
      <rect width="32.6659" height="32.6659" fill="white" transform="translate(31.6481 40.1016) rotate(-165)"/>
    </clipPath>
  </defs>
</svg>