<svg xmlns="http://www.w3.org/2000/svg" width="89" height="89" viewBox="0 0 89 89" fill="none">
  <path d="M70.7475 36.9905C69.7529 36.9905 68.7992 37.3857 68.0959 38.0891C67.3927 38.7925 66.9976 39.7466 66.9976 40.7413V53.4565L61.4478 47.9053C60.4825 46.9334 59.3344 46.1621 58.0698 45.6358C56.8053 45.1095 55.4491 44.8385 54.0794 44.8385C52.7097 44.8385 51.3535 45.1095 50.0889 45.6358C48.8243 46.1621 47.6763 46.9334 46.7109 47.9053L44.086 50.5309L34.7864 41.1914C32.8268 39.2468 30.1783 38.1556 27.4179 38.1556C24.6576 38.1556 22.0091 39.2468 20.0495 41.1914L14.4997 46.7426V25.7382C14.4997 24.7434 14.8948 23.7894 15.598 23.086C16.3012 22.3826 17.255 21.9874 18.2496 21.9874H48.2484C49.2429 21.9874 50.1967 21.5922 50.8999 20.8888C51.6031 20.1854 51.9982 19.2314 51.9982 18.2366C51.9982 17.2418 51.6031 16.2878 50.8999 15.5844C50.1967 14.881 49.2429 14.4858 48.2484 14.4858H18.2496C15.266 14.4858 12.4046 15.6713 10.2949 17.7816C8.18522 19.8918 7 22.7539 7 25.7382V70.7476C7 73.7319 8.18522 76.594 10.2949 78.7043C12.4046 80.8145 15.266 82 18.2496 82H63.2478C66.2313 82 69.0927 80.8145 71.2024 78.7043C73.3121 76.594 74.4973 73.7319 74.4973 70.7476V40.7413C74.4973 39.7466 74.1022 38.7925 73.399 38.0891C72.6958 37.3857 71.742 36.9905 70.7475 36.9905ZM18.2496 74.4984C17.255 74.4984 16.3012 74.1033 15.598 73.3998C14.8948 72.6964 14.4997 71.7424 14.4997 70.7476V57.3573L25.3743 46.48C25.9252 45.9549 26.657 45.662 27.4179 45.662C28.1789 45.662 28.9107 45.9549 29.4616 46.48L41.3486 58.37L57.4355 74.4984H18.2496ZM66.9976 70.7476C66.9922 71.4656 66.7555 72.1628 66.3226 72.7356L49.4108 55.7445L52.0357 53.1189C52.5838 52.5738 53.3252 52.2678 54.0981 52.2678C54.871 52.2678 55.6125 52.5738 56.1605 53.1189L66.9976 64.0712V70.7476ZM76.0348 18.2366L80.9096 13.3981C81.608 12.6953 82 11.7447 82 10.7538C82 9.76288 81.608 8.81223 80.9096 8.10948C80.561 7.75792 80.1462 7.47888 79.6893 7.28846C79.2323 7.09804 78.7422 7 78.2472 7C77.7522 7 77.262 7.09804 76.8051 7.28846C76.3481 7.47888 75.9334 7.75792 75.5848 8.10948L70.7475 12.948L65.9102 8.10948C65.5616 7.75792 65.1468 7.47888 64.6899 7.28846C64.2329 7.09804 63.7428 7 63.2478 7C62.7527 7 62.2626 7.09804 61.8057 7.28846C61.3487 7.47888 60.934 7.75792 60.5854 8.10948C59.887 8.81223 59.4949 9.76288 59.4949 10.7538C59.4949 11.7447 59.887 12.6953 60.5854 13.3981L65.4602 18.2366L60.5854 23.1126C59.887 23.8154 59.4949 24.766 59.4949 25.7569C59.4949 26.7478 59.887 27.6985 60.5854 28.4012C60.934 28.7528 61.3487 29.0318 61.8057 29.2223C62.2626 29.4127 62.7527 29.5107 63.2478 29.5107C63.7428 29.5107 64.2329 29.4127 64.6899 29.2223C65.1468 29.0318 65.5616 28.7528 65.9102 28.4012L70.7475 23.5627L75.5848 28.4012C75.9334 28.7528 76.3481 29.0318 76.8051 29.2223C77.262 29.4127 77.7522 29.5107 78.2472 29.5107C78.7422 29.5107 79.2323 29.4127 79.6893 29.2223C80.1462 29.0318 80.561 28.7528 80.9096 28.4012C81.608 27.6985 82 26.7478 82 25.7569C82 24.766 81.608 23.8154 80.9096 23.1126L76.0348 18.2366Z" fill="#656565"/>
</svg>