<svg xmlns="http://www.w3.org/2000/svg" width="89" height="89" viewBox="0 0 89 89" fill="none">
  <path d="M70.75 37C69.7554 37 68.8016 37.3951 68.0983 38.0984C67.3951 38.8016 67 39.7554 67 40.75V53.425L61.45 47.875C59.4903 45.9308 56.8417 44.8398 54.0813 44.8398C51.3208 44.8398 48.6722 45.9308 46.7125 47.875L44.0875 50.5375L34.7875 41.2C32.8278 39.2558 30.1792 38.1648 27.4188 38.1648C24.6583 38.1648 22.0097 39.2558 20.05 41.2L14.5 46.7875V25.75C14.5 24.7554 14.8951 23.8016 15.5984 23.0984C16.3016 22.3951 17.2554 22 18.25 22H48.25C49.2446 22 50.1984 21.6049 50.9016 20.9016C51.6049 20.1984 52 19.2446 52 18.25C52 17.2554 51.6049 16.3016 50.9016 15.5984C50.1984 14.8951 49.2446 14.5 48.25 14.5H18.25C15.2663 14.5 12.4048 15.6853 10.295 17.795C8.18526 19.9048 7 22.7663 7 25.75V71.575C7.00988 74.3368 8.1114 76.9827 10.0643 78.9357C12.0173 80.8886 14.6632 81.9901 17.425 82H64.075C65.0912 81.9919 66.1012 81.8404 67.075 81.55C69.2404 80.9426 71.1467 79.6416 72.5015 77.8465C73.8563 76.0514 74.5847 73.8614 74.575 71.6125V40.75C74.5751 40.2512 74.4757 39.7573 74.2825 39.2974C74.0894 38.8375 73.8065 38.4207 73.4503 38.0715C73.0941 37.7223 72.6718 37.4476 72.2081 37.2636C71.7444 37.0796 71.2487 36.99 70.75 37ZM18.25 74.5C17.2554 74.5 16.3016 74.1049 15.5984 73.4017C14.8951 72.6984 14.5 71.7446 14.5 70.75V57.3625L25.3375 46.525C25.8856 45.98 26.6271 45.6741 27.4 45.6741C28.1729 45.6741 28.9144 45.98 29.4625 46.525L57.475 74.5H18.25ZM67 70.75C66.9759 71.4761 66.7414 72.1796 66.325 72.775L49.375 55.75L52.0375 53.125C52.3064 52.8506 52.6273 52.6326 52.9814 52.4838C53.3356 52.335 53.7159 52.2583 54.1 52.2583C54.4842 52.2583 54.8644 52.335 55.2186 52.4838C55.5728 52.6326 55.8937 52.8506 56.1625 53.125L67 64.0375V70.75ZM78.25 14.5H74.5V10.75C74.5 9.75544 74.1049 8.80161 73.4017 8.09835C72.6984 7.39509 71.7446 7 70.75 7C69.7554 7 68.8016 7.39509 68.0983 8.09835C67.3951 8.80161 67 9.75544 67 10.75V14.5H63.25C62.2554 14.5 61.3016 14.8951 60.5983 15.5984C59.8951 16.3016 59.5 17.2554 59.5 18.25C59.5 19.2446 59.8951 20.1984 60.5983 20.9016C61.3016 21.6049 62.2554 22 63.25 22H67V25.75C67 26.7446 67.3951 27.6984 68.0983 28.4016C68.8016 29.1049 69.7554 29.5 70.75 29.5C71.7446 29.5 72.6984 29.1049 73.4017 28.4016C74.1049 27.6984 74.5 26.7446 74.5 25.75V22H78.25C79.2446 22 80.1984 21.6049 80.9017 20.9016C81.6049 20.1984 82 19.2446 82 18.25C82 17.2554 81.6049 16.3016 80.9017 15.5984C80.1984 14.8951 79.2446 14.5 78.25 14.5Z" fill="#656565"/>
</svg>