<svg xmlns="http://www.w3.org/2000/svg" width="30" height="30" viewBox="0 0 30 30" fill="none">
  <path d="M12.5 13.75C11.75 13.75 11.25 14.25 11.25 15V20C11.25 20.75 11.75 21.25 12.5 21.25C13.25 21.25 13.75 20.75 13.75 20V15C13.75 14.25 13.25 13.75 12.5 13.75ZM17.5 13.75C16.75 13.75 16.25 14.25 16.25 15V20C16.25 20.75 16.75 21.25 17.5 21.25C18.25 21.25 18.75 20.75 18.75 20V15C18.75 14.25 18.25 13.75 17.5 13.75Z" fill="#656565"/>
  <path d="M16.875 2.5H13.125C11.375 2.5 10 3.875 10 5.625V6.25H6.25C5.5 6.25 5 6.75 5 7.5C5 8.25 5.5 8.75 6.25 8.75H6.375L7.375 22.75C7.5 25.5 9.625 27.5 12.25 27.5H17.75C20.375 27.5 22.625 25.5 22.75 22.875L23.625 8.75H23.75C24.5 8.75 25 8.25 25 7.5C25 6.75 24.5 6.25 23.75 6.25H20V5.625C20 3.875 18.625 2.5 16.875 2.5ZM12.5 5.625C12.5 5.25 12.75 5 13.125 5H16.875C17.25 5 17.5 5.25 17.5 5.625V6.25H12.5V5.625ZM21.125 8.75L20.125 22.625C20 24 19 25 17.625 25H12.25C10.875 25 9.875 24 9.75 22.625L8.875 8.75H21.125Z" fill="#656565"/>
</svg>