<svg xmlns="http://www.w3.org/2000/svg" width="14" height="14" viewBox="0 0 14 14" fill="none">
  <path d="M12 2.5H11.5V2C11.5 1.17285 10.8272 0.5 10 0.5H2C1.17285 0.5 0.5 1.17285 0.5 2V10C0.5 10.8272 1.17285 11.5 2 11.5H2.5V12C2.5 12.8272 3.17285 13.5 4 13.5H12C12.8272 13.5 13.5 12.8272 13.5 12V4C13.5 3.17285 12.8272 2.5 12 2.5ZM2 1.5H10C10.2759 1.5 10.5 1.72435 10.5 2V4.81185L7.4497 8.29835L4.3252 5.62035C4.12695 5.4502 3.83105 5.4614 3.6465 5.64645L1.5 7.79295V2C1.5 1.72435 1.7241 1.5 2 1.5ZM12.5 12C12.5 12.2757 12.2759 12.5 12 12.5H4C3.7241 12.5 3.5 12.2757 3.5 12V11.5H10C10.8272 11.5 11.5 10.8272 11.5 10V3.5H12C12.2759 3.5 12.5 3.72435 12.5 4V12Z" fill="#656565"/>
</svg>