<svg xmlns="http://www.w3.org/2000/svg" width="89" height="89" viewBox="0 0 89 89" fill="none">
  <path d="M80.6072 13.91L71.6333 4.93602C71.2891 4.5916 70.8803 4.31838 70.4304 4.13197C69.9806 3.94556 69.4984 3.84961 69.0114 3.84961C68.5244 3.84961 68.0422 3.94556 67.5924 4.13197C67.1425 4.31838 66.7338 4.5916 66.3895 4.93602L49.405 21.9205C48.7096 22.6158 48.3188 23.5589 48.3185 24.5423V33.5163C48.3185 34.4998 48.7093 35.443 49.4047 36.1384C50.1001 36.8339 51.0433 37.2246 52.0268 37.2246H61.0027C61.9861 37.2244 62.9291 36.8335 63.6245 36.1381L80.6072 19.1536C80.9516 18.8093 81.2248 18.4006 81.4112 17.9508C81.5976 17.5009 81.6935 17.0187 81.6935 16.5318C81.6935 16.0449 81.5976 15.5627 81.4112 15.1128C81.2248 14.663 80.9516 14.2543 80.6072 13.91ZM59.4672 29.808H55.7353V26.0779L69.0114 12.8018L72.7415 16.5318L59.4672 29.808ZM70.4582 40.7917C69.4747 40.7917 68.5314 41.1824 67.836 41.8779C67.1405 42.5733 66.7498 43.5165 66.7498 44.5V53.3689L61.2598 47.8788C59.3267 45.9496 56.7072 44.866 53.9762 44.866C51.2451 44.866 48.6256 45.9496 46.6926 47.8788L44.1042 50.4672L34.885 41.2478C32.9542 39.3199 30.3372 38.2371 27.6086 38.2371C24.8801 38.2371 22.2631 39.3199 20.3323 41.2478L14.8332 46.7473V25.9584C14.8344 24.9753 15.2256 24.0328 15.9207 23.3376C16.6159 22.6424 17.5584 22.2513 18.5415 22.25H40.7915C41.775 22.25 42.7182 21.8593 43.4137 21.1639C44.1091 20.4685 44.4998 19.5252 44.4998 18.5417C44.4998 17.5582 44.1091 16.615 43.4137 15.9195C42.7182 15.2241 41.775 14.8334 40.7915 14.8334H18.5415C15.592 14.8366 12.7641 16.0097 10.6785 18.0954C8.59285 20.181 7.41972 23.0088 7.4165 25.9584V70.4584C7.41972 73.4079 8.59285 76.2357 10.6785 78.3214C12.7641 80.407 15.592 81.5802 18.5415 81.5834H63.0415C65.9911 81.5802 68.8189 80.407 70.9045 78.3214C72.9902 76.2357 74.1633 73.4079 74.1665 70.4584V44.5C74.1665 43.5165 73.7758 42.5733 73.0804 41.8779C72.3849 41.1824 71.4417 40.7917 70.4582 40.7917ZM18.5415 74.1667C17.5584 74.1654 16.6159 73.7743 15.9207 73.0792C15.2256 72.384 14.8344 71.4415 14.8332 70.4584V57.2348L25.5762 46.4917C26.1261 45.9736 26.8532 45.685 27.6087 45.685C28.3643 45.685 29.0913 45.9736 29.6413 46.4917L41.3893 58.2364C41.4207 58.2704 41.4323 58.3172 41.4651 58.35L57.283 74.1667H18.5415ZM66.7498 70.4584C66.7315 71.1733 66.5007 71.8666 66.0869 72.4499L49.348 55.711L51.9364 53.1226C52.4783 52.5834 53.2117 52.2806 53.9762 52.2806C54.7407 52.2806 55.4741 52.5834 56.016 53.1226L66.7498 63.8565V70.4584Z" fill="#656565"/>
</svg>