<svg width="35" height="35" viewBox="0 0 35 35" fill="none" xmlns="http://www.w3.org/2000/svg">
<g id="Close">
<path id="Vector" d="M18.6298 16.6238L27.5821 7.68572C27.8497 7.41814 28 7.05522 28 6.67681C28 6.2984 27.8497 5.93548 27.5821 5.6679C27.3145 5.40032 26.9516 5.25 26.5732 5.25C26.1948 5.25 25.8319 5.40032 25.5643 5.6679L16.6262 14.6202L7.68814 5.6679C7.42056 5.40032 7.05765 5.25 6.67924 5.25C6.30082 5.25 5.93791 5.40032 5.67033 5.6679C5.40275 5.93548 5.25243 6.2984 5.25243 6.67681C5.25243 7.05522 5.40275 7.41814 5.67033 7.68572L14.6226 16.6238L5.67033 25.5619C5.53714 25.694 5.43143 25.8511 5.35928 26.0243C5.28714 26.1974 5.25 26.3832 5.25 26.5708C5.25 26.7584 5.28714 26.9441 5.35928 27.1172C5.43143 27.2904 5.53714 27.4476 5.67033 27.5797C5.80243 27.7129 5.95959 27.8186 6.13275 27.8907C6.30592 27.9629 6.49165 28 6.67924 28C6.86682 28 7.05256 27.9629 7.22572 27.8907C7.39888 27.8186 7.55604 27.7129 7.68814 27.5797L16.6262 18.6274L25.5643 27.5797C25.6964 27.7129 25.8535 27.8186 26.0267 27.8907C26.1999 27.9629 26.3856 28 26.5732 28C26.7608 28 26.9465 27.9629 27.1197 27.8907C27.2928 27.8186 27.45 27.7129 27.5821 27.5797C27.7153 27.4476 27.821 27.2904 27.8931 27.1172C27.9653 26.9441 28.0024 26.7584 28.0024 26.5708C28.0024 26.3832 27.9653 26.1974 27.8931 26.0243C27.821 25.8511 27.7153 25.694 27.5821 25.5619L18.6298 16.6238Z" fill="white"/>
</g>
</svg>
