<svg width="50" height="231" viewBox="0 0 50 231" fill="none" xmlns="http://www.w3.org/2000/svg">
<rect width="50" height="231" fill="url(#paint0_linear_1_6)" fill-opacity="0.35"/>
<path d="M18.8125 116.8L28.075 125.9C28.725 126.55 29.7 126.55 30.35 125.9C31 125.25 31 124.275 30.35 123.625L22.3875 115.5L30.35 107.375C31 106.725 31 105.75 30.35 105.1C30.025 104.775 29.7 104.613 29.2125 104.613C28.725 104.613 28.4 104.775 28.075 105.1L18.8125 114.2C18.1625 115.013 18.1625 115.988 18.8125 116.8C18.8125 116.638 18.8125 116.638 18.8125 116.8Z" fill="white"/>
<defs>
<linearGradient id="paint0_linear_1_6" x1="25" y1="0" x2="25" y2="231" gradientUnits="userSpaceOnUse">
<stop offset="0.197917" stop-color="#AB5BFB"/>
<stop offset="0.9999" stop-color="#BA2C2C" stop-opacity="0.0572917"/>
<stop offset="1" stop-opacity="0"/>
</linearGradient>
</defs>
</svg>
